<?xml version="1.0" standalone="no"?><!DOCTYPE svg PUBLIC "-//W3C//DTD SVG 1.1//EN" "http://www.w3.org/Graphics/SVG/1.1/DTD/svg11.dtd"><svg t="1616826843475" class="icon" viewBox="0 0 1024 1024" version="1.1" xmlns="http://www.w3.org/2000/svg" p-id="5468" xmlns:xlink="http://www.w3.org/1999/xlink" width="300" height="300"><defs><style type="text/css"></style></defs><path d="M870.4 354.576H716.8v-42.88c0-72.32-26.464-193.304-204.8-193.304-185.16 0-204.8 135.048-204.8 193.296v42.888H153.6v-42.88C153.6 122.248 294.384 0 512 0c217.616 0 358.4 122.248 358.4 311.688v42.888z m-256 314.848c0-43.52-46.104-78.656-102.4-78.656-56.296 0-102.4 35.136-102.4 78.656 0 29.456 20.536 54.464 51.256 67.816v89.64c0 21.744 23 39.696 51.2 39.696 28.192 0 51.2-17.952 51.2-39.696V737.24c30.664-13.352 51.144-38.36 51.144-67.816zM1024 512v393.608c0 65.264-69.16 118.392-153.6 118.392H153.6C69.208 1024 0 970.872 0 905.608V512c0-65.224 69.16-118.392 153.6-118.392h716.8c84.44 0 153.6 53.168 153.6 118.392z" p-id="5469"></path></svg>